<svg fill="currentColor" width="100%" height="100%" viewBox="0 0 2209 905" version="1.1" xmlns="http://www.w3.org/2000/svg" xmlns:xlink="http://www.w3.org/1999/xlink" xml:space="preserve" xmlns:serif="http://www.serif.com/" style="fill-rule:evenodd;clip-rule:evenodd;stroke-linejoin:round;stroke-miterlimit:2;">
  <g>
    <path d="M125.102,590.493c55.881,0 106.252,-25.185 124.355,-62.964l-0.787,52.733l103.104,-0l36.991,-230.607c17.315,-107.04 -44.862,-174.726 -160.559,-174.726c-107.826,-0 -176.3,52.732 -190.467,146.392l102.317,-0c5.509,-37.779 30.695,-56.668 75.557,-56.668c44.075,-0 66.9,21.25 62.178,60.603l-0.787,7.084l-110.188,9.444c-104.678,8.658 -162.133,57.455 -162.133,139.309c-0,65.325 48.797,109.4 120.419,109.4Zm47.223,-87.363c-31.482,0 -48.797,-13.38 -48.797,-36.204c-0,-29.908 21.25,-46.436 79.492,-51.159l62.965,-5.509l-3.148,21.25c-6.297,44.076 -41.714,71.622 -90.512,71.622Z" style="fill-rule:nonzero;"/>
    <path d="M357.283,768.368c22.038,6.296 46.436,10.231 76.344,10.231c77.132,0 121.994,-44.862 160.559,-112.548l270.747,-479.316l-128.29,-0l-134.586,256.579l-44.862,-256.579l-118.058,-0l88.937,398.249l-15.741,29.121c-20.464,39.353 -44.075,55.094 -74.77,55.094l-64.539,-0l-15.741,99.169Z" style="fill-rule:nonzero;"/>
    <path d="M820.858,769.155l117.271,-0l36.205,-240.839c21.25,35.418 73.196,61.39 127.502,61.39c118.059,0 205.422,-94.446 205.422,-232.968c-0,-107.039 -68.474,-181.022 -161.347,-181.022c-54.306,-0 -95.233,22.037 -123.567,59.029l0.787,-48.01l-110.188,-0l-92.085,582.42Zm177.087,-368.342c0,-68.473 49.585,-121.993 110.188,-121.993c50.371,-0 81.853,34.63 81.853,85.789c0,68.474 -49.584,121.993 -110.187,121.993c-50.372,0 -81.854,-34.63 -81.854,-85.789Z" style="fill-rule:nonzero;"/>
    <path d="M1537.08,589.706c92.873,0 174.726,-57.455 201.486,-141.669l-114.91,-0c-14.954,29.121 -43.288,45.649 -80.279,45.649c-50.372,-0 -75.557,-25.973 -78.706,-78.706l277.831,-1.574l4.722,-30.695c19.676,-125.929 -48.01,-206.995 -170.004,-206.995c-127.503,-0 -224.31,102.317 -224.31,237.69c-0,111.762 67.686,176.3 184.17,176.3Zm33.057,-318.757c48.01,0 73.983,27.547 66.899,70.835l-160.559,0c17.315,-42.501 51.946,-70.835 93.66,-70.835Z" style="fill-rule:nonzero;"/>
    <path d="M1869.21,580.262l81.854,-115.697l51.158,115.697l127.503,-0l-94.446,-192.829l161.346,-200.698l-138.522,-0l-84.214,121.993l-55.094,-121.993l-127.503,-0l99.956,203.06l-162.133,190.467l140.095,-0Z" style="fill-rule:nonzero;"/>
    <path d="M2158.88,673.356l-1119.99,-0.408l-13.66,101.131l1133.65,-0l-0,-100.723Z"/>
  </g>
</svg>
